<mxfile host="app.diagrams.net" modified="2020-12-02T15:50:55.973Z" agent="5.0 (Windows NT 10.0; Win64; x64) AppleWebKit/537.36 (KHTML, like Gecko) Chrome/87.0.4280.66 Safari/537.36" etag="ONrr8aYS3kTzH74l0ldF" version="13.10.4" type="github">
  <diagram id="XFkhv5XfGi1PEyDfdlKW" name="Page-1">
    <mxGraphModel dx="1185" dy="1812" grid="1" gridSize="10" guides="1" tooltips="1" connect="1" arrows="1" fold="1" page="1" pageScale="1" pageWidth="827" pageHeight="1169" math="0" shadow="0">
      <root>
        <mxCell id="0" />
        <mxCell id="1" parent="0" />
        <mxCell id="SZiY50dN_7dzx2aO1JHb-30" style="edgeStyle=orthogonalEdgeStyle;rounded=0;orthogonalLoop=1;jettySize=auto;html=1;entryX=0.5;entryY=0;entryDx=0;entryDy=0;" edge="1" parent="1" source="SZiY50dN_7dzx2aO1JHb-1" target="SZiY50dN_7dzx2aO1JHb-10">
          <mxGeometry relative="1" as="geometry" />
        </mxCell>
        <mxCell id="SZiY50dN_7dzx2aO1JHb-39" value="Edits &amp;amp; Views" style="edgeLabel;html=1;align=center;verticalAlign=middle;resizable=0;points=[];" vertex="1" connectable="0" parent="SZiY50dN_7dzx2aO1JHb-30">
          <mxGeometry x="-0.3233" relative="1" as="geometry">
            <mxPoint as="offset" />
          </mxGeometry>
        </mxCell>
        <mxCell id="SZiY50dN_7dzx2aO1JHb-1" value="Wikidata Editor / Viewer" style="shape=umlActor;verticalLabelPosition=top;verticalAlign=bottom;html=1;outlineConnect=0;fillColor=#dae8fc;strokeColor=#6c8ebf;labelPosition=center;align=center;whiteSpace=wrap;" vertex="1" parent="1">
          <mxGeometry x="795" y="30" width="30" height="60" as="geometry" />
        </mxCell>
        <mxCell id="SZiY50dN_7dzx2aO1JHb-19" style="edgeStyle=orthogonalEdgeStyle;rounded=0;orthogonalLoop=1;jettySize=auto;html=1;" edge="1" parent="1" source="SZiY50dN_7dzx2aO1JHb-2" target="SZiY50dN_7dzx2aO1JHb-12">
          <mxGeometry relative="1" as="geometry" />
        </mxCell>
        <mxCell id="SZiY50dN_7dzx2aO1JHb-20" value="TBA Interaction" style="edgeLabel;html=1;align=center;verticalAlign=middle;resizable=0;points=[];" vertex="1" connectable="0" parent="SZiY50dN_7dzx2aO1JHb-19">
          <mxGeometry x="0.1198" y="-1" relative="1" as="geometry">
            <mxPoint x="-14.14" y="-11" as="offset" />
          </mxGeometry>
        </mxCell>
        <mxCell id="SZiY50dN_7dzx2aO1JHb-2" value="Quickstatements User" style="shape=umlActor;verticalLabelPosition=top;verticalAlign=bottom;html=1;outlineConnect=0;fillColor=#dae8fc;strokeColor=#6c8ebf;labelPosition=center;align=center;whiteSpace=wrap;" vertex="1" parent="1">
          <mxGeometry x="270" y="290" width="30" height="60" as="geometry" />
        </mxCell>
        <mxCell id="SZiY50dN_7dzx2aO1JHb-18" style="rounded=0;orthogonalLoop=1;jettySize=auto;html=1;entryX=0;entryY=0.5;entryDx=0;entryDy=0;" edge="1" parent="1" source="SZiY50dN_7dzx2aO1JHb-4" target="SZiY50dN_7dzx2aO1JHb-7">
          <mxGeometry relative="1" as="geometry" />
        </mxCell>
        <mxCell id="SZiY50dN_7dzx2aO1JHb-37" value="Interacts With" style="edgeLabel;html=1;align=center;verticalAlign=middle;resizable=0;points=[];" vertex="1" connectable="0" parent="SZiY50dN_7dzx2aO1JHb-18">
          <mxGeometry x="0.2433" y="2" relative="1" as="geometry">
            <mxPoint x="-8.3" y="-11.06" as="offset" />
          </mxGeometry>
        </mxCell>
        <mxCell id="SZiY50dN_7dzx2aO1JHb-22" style="rounded=0;orthogonalLoop=1;jettySize=auto;html=1;entryX=0;entryY=0.5;entryDx=0;entryDy=0;" edge="1" parent="1" source="SZiY50dN_7dzx2aO1JHb-4" target="SZiY50dN_7dzx2aO1JHb-9">
          <mxGeometry relative="1" as="geometry">
            <mxPoint x="400" y="80.57142857142867" as="targetPoint" />
          </mxGeometry>
        </mxCell>
        <mxCell id="SZiY50dN_7dzx2aO1JHb-38" value="Queries" style="edgeLabel;html=1;align=center;verticalAlign=middle;resizable=0;points=[];" vertex="1" connectable="0" parent="SZiY50dN_7dzx2aO1JHb-22">
          <mxGeometry x="0.1395" y="2" relative="1" as="geometry">
            <mxPoint as="offset" />
          </mxGeometry>
        </mxCell>
        <mxCell id="SZiY50dN_7dzx2aO1JHb-4" value="Query User" style="shape=umlActor;verticalLabelPosition=top;verticalAlign=bottom;html=1;outlineConnect=0;fillColor=#dae8fc;strokeColor=#6c8ebf;labelPosition=center;align=center;whiteSpace=wrap;" vertex="1" parent="1">
          <mxGeometry x="270" y="110" width="30" height="60" as="geometry" />
        </mxCell>
        <mxCell id="SZiY50dN_7dzx2aO1JHb-23" style="rounded=0;orthogonalLoop=1;jettySize=auto;html=1;entryX=0.5;entryY=0;entryDx=0;entryDy=0;" edge="1" parent="1" source="SZiY50dN_7dzx2aO1JHb-7" target="SZiY50dN_7dzx2aO1JHb-9">
          <mxGeometry relative="1" as="geometry">
            <mxPoint x="460" y="90.00000000000023" as="targetPoint" />
          </mxGeometry>
        </mxCell>
        <mxCell id="SZiY50dN_7dzx2aO1JHb-40" value="Queries" style="edgeLabel;html=1;align=center;verticalAlign=middle;resizable=0;points=[];" vertex="1" connectable="0" parent="SZiY50dN_7dzx2aO1JHb-23">
          <mxGeometry x="-0.2857" y="3" relative="1" as="geometry">
            <mxPoint y="-5" as="offset" />
          </mxGeometry>
        </mxCell>
        <mxCell id="SZiY50dN_7dzx2aO1JHb-7" value="Query Service UI" style="rounded=0;whiteSpace=wrap;html=1;fillColor=#fff2cc;strokeColor=#d6b656;" vertex="1" parent="1">
          <mxGeometry x="400" y="50" width="120" height="60" as="geometry" />
        </mxCell>
        <mxCell id="SZiY50dN_7dzx2aO1JHb-28" style="rounded=0;orthogonalLoop=1;jettySize=auto;html=1;entryX=0;entryY=0.25;entryDx=0;entryDy=0;exitX=1;exitY=0.5;exitDx=0;exitDy=0;" edge="1" parent="1" source="SZiY50dN_7dzx2aO1JHb-9" target="SZiY50dN_7dzx2aO1JHb-10">
          <mxGeometry relative="1" as="geometry" />
        </mxCell>
        <mxCell id="SZiY50dN_7dzx2aO1JHb-29" value="Get RecentChanges &amp;amp;&lt;br&gt;RDF Data&amp;nbsp;" style="edgeLabel;html=1;align=center;verticalAlign=middle;resizable=0;points=[];" vertex="1" connectable="0" parent="SZiY50dN_7dzx2aO1JHb-28">
          <mxGeometry x="0.2536" y="4" relative="1" as="geometry">
            <mxPoint x="-49.74" y="-19.259999999999998" as="offset" />
          </mxGeometry>
        </mxCell>
        <mxCell id="SZiY50dN_7dzx2aO1JHb-9" value="Query Service" style="rounded=0;whiteSpace=wrap;html=1;fillColor=#fff2cc;strokeColor=#d6b656;" vertex="1" parent="1">
          <mxGeometry x="400" y="175" width="120" height="60" as="geometry" />
        </mxCell>
        <mxCell id="SZiY50dN_7dzx2aO1JHb-43" style="edgeStyle=none;rounded=0;orthogonalLoop=1;jettySize=auto;html=1;entryX=0.25;entryY=1;entryDx=0;entryDy=0;exitX=1;exitY=0.25;exitDx=0;exitDy=0;" edge="1" parent="1" source="SZiY50dN_7dzx2aO1JHb-10" target="SZiY50dN_7dzx2aO1JHb-11">
          <mxGeometry relative="1" as="geometry" />
        </mxCell>
        <mxCell id="SZiY50dN_7dzx2aO1JHb-44" value="Get Termbox" style="edgeLabel;html=1;align=center;verticalAlign=middle;resizable=0;points=[];" vertex="1" connectable="0" parent="SZiY50dN_7dzx2aO1JHb-43">
          <mxGeometry x="-0.1122" y="-3" relative="1" as="geometry">
            <mxPoint as="offset" />
          </mxGeometry>
        </mxCell>
        <mxCell id="SZiY50dN_7dzx2aO1JHb-45" style="edgeStyle=none;rounded=0;orthogonalLoop=1;jettySize=auto;html=1;" edge="1" parent="1" source="SZiY50dN_7dzx2aO1JHb-10" target="SZiY50dN_7dzx2aO1JHb-14">
          <mxGeometry relative="1" as="geometry" />
        </mxCell>
        <mxCell id="SZiY50dN_7dzx2aO1JHb-46" value="Update index&lt;br&gt;Perform search" style="edgeLabel;html=1;align=center;verticalAlign=middle;resizable=0;points=[];" vertex="1" connectable="0" parent="SZiY50dN_7dzx2aO1JHb-45">
          <mxGeometry x="-0.3462" y="-1" relative="1" as="geometry">
            <mxPoint x="22" as="offset" />
          </mxGeometry>
        </mxCell>
        <mxCell id="SZiY50dN_7dzx2aO1JHb-47" style="edgeStyle=none;rounded=0;orthogonalLoop=1;jettySize=auto;html=1;" edge="1" parent="1" source="SZiY50dN_7dzx2aO1JHb-10" target="SZiY50dN_7dzx2aO1JHb-13">
          <mxGeometry relative="1" as="geometry" />
        </mxCell>
        <mxCell id="SZiY50dN_7dzx2aO1JHb-48" value="Perform Media Search" style="edgeLabel;html=1;align=center;verticalAlign=middle;resizable=0;points=[];" vertex="1" connectable="0" parent="SZiY50dN_7dzx2aO1JHb-47">
          <mxGeometry x="0.2642" y="-4" relative="1" as="geometry">
            <mxPoint x="4" y="-8.330000000000002" as="offset" />
          </mxGeometry>
        </mxCell>
        <mxCell id="SZiY50dN_7dzx2aO1JHb-10" value="MediaWiki / Wikibase" style="rounded=0;whiteSpace=wrap;html=1;fillColor=#fff2cc;strokeColor=#d6b656;" vertex="1" parent="1">
          <mxGeometry x="750" y="190" width="120" height="60" as="geometry" />
        </mxCell>
        <mxCell id="SZiY50dN_7dzx2aO1JHb-34" style="rounded=0;orthogonalLoop=1;jettySize=auto;html=1;entryX=0.75;entryY=0;entryDx=0;entryDy=0;exitX=0;exitY=0.5;exitDx=0;exitDy=0;" edge="1" parent="1" source="SZiY50dN_7dzx2aO1JHb-11" target="SZiY50dN_7dzx2aO1JHb-10">
          <mxGeometry relative="1" as="geometry" />
        </mxCell>
        <mxCell id="SZiY50dN_7dzx2aO1JHb-42" value="Get Entity Data" style="edgeLabel;html=1;align=center;verticalAlign=middle;resizable=0;points=[];" vertex="1" connectable="0" parent="SZiY50dN_7dzx2aO1JHb-34">
          <mxGeometry x="-0.311" relative="1" as="geometry">
            <mxPoint as="offset" />
          </mxGeometry>
        </mxCell>
        <mxCell id="SZiY50dN_7dzx2aO1JHb-11" value="Termbox V2 SSR" style="rounded=0;whiteSpace=wrap;html=1;fillColor=#fff2cc;strokeColor=#d6b656;" vertex="1" parent="1">
          <mxGeometry x="1020" y="50" width="120" height="60" as="geometry" />
        </mxCell>
        <mxCell id="SZiY50dN_7dzx2aO1JHb-32" style="rounded=0;orthogonalLoop=1;jettySize=auto;html=1;entryX=0;entryY=1;entryDx=0;entryDy=0;" edge="1" parent="1" source="SZiY50dN_7dzx2aO1JHb-12" target="SZiY50dN_7dzx2aO1JHb-10">
          <mxGeometry relative="1" as="geometry" />
        </mxCell>
        <mxCell id="SZiY50dN_7dzx2aO1JHb-33" value="Edits &amp;amp; Authenticates" style="edgeLabel;html=1;align=center;verticalAlign=middle;resizable=0;points=[];rotation=0;" vertex="1" connectable="0" parent="SZiY50dN_7dzx2aO1JHb-32">
          <mxGeometry x="0.119" y="5" relative="1" as="geometry">
            <mxPoint x="-37.58" y="-12.7" as="offset" />
          </mxGeometry>
        </mxCell>
        <mxCell id="SZiY50dN_7dzx2aO1JHb-12" value="Quickstatements" style="rounded=0;whiteSpace=wrap;html=1;fillColor=#f8cecc;strokeColor=#b85450;" vertex="1" parent="1">
          <mxGeometry x="400" y="290" width="120" height="60" as="geometry" />
        </mxCell>
        <mxCell id="SZiY50dN_7dzx2aO1JHb-13" value="Wikimedia Commons" style="rounded=0;whiteSpace=wrap;html=1;fillColor=#f8cecc;strokeColor=#b85450;" vertex="1" parent="1">
          <mxGeometry x="750" y="310" width="120" height="60" as="geometry" />
        </mxCell>
        <mxCell id="SZiY50dN_7dzx2aO1JHb-14" value="Elastic Search" style="rounded=0;whiteSpace=wrap;html=1;fillColor=#f8cecc;strokeColor=#b85450;" vertex="1" parent="1">
          <mxGeometry x="1020" y="310" width="120" height="60" as="geometry" />
        </mxCell>
      </root>
    </mxGraphModel>
  </diagram>
</mxfile>
